<svg xmlns="http://www.w3.org/2000/svg" width="243" height="108" viewBox="0 0 243 108">
    <g fill="none" fill-rule="evenodd">
        <path fill="#FFF" d="M147.056 18.845h-15.973v69.251h49.057V74.61h-33.084zM215.276 61.7h13.001v12.108c-2.395.92-7.067 1.833-11.516 1.833-14.378 0-19.17-7.319-19.17-22.172 0-14.17 4.562-22.514 18.937-22.514 7.99 0 12.549 2.514 16.312 7.315l9.93-9.143c-6.05-8.68-16.66-11.311-26.586-11.311-22.357 0-34.108 12.225-34.108 35.537 0 23.202 10.609 35.772 33.996 35.772 10.723 0 21.22-2.744 26.923-6.74v-33.6h-27.719V61.7z"/>
        <path fill="#A50034" d="M53.71 107.326c29.534 0 53.475-23.994 53.475-53.568C107.185 24.17 83.244.2 53.71.2 24.18.2.236 24.171.236 53.758c0 29.574 23.944 53.568 53.474 53.568"/>
        <path fill="#FFF" d="M51.586 30.25v46.955h14.897v-4.188H55.835V30.251zM36.64 43.07a6.424 6.424 0 0 0 0-12.846c-3.526 0-6.402 2.882-6.402 6.428 0 3.536 2.876 6.418 6.402 6.418"/>
        <path fill="#FFF" d="M55.835 8.943a67.38 67.38 0 0 0-2.125-.036C29.047 8.907 8.97 29.025 8.97 53.745c0 11.97 4.637 23.23 13.081 31.69 8.476 8.48 19.72 13.133 31.66 13.133 11.945 0 23.188-4.653 31.659-13.133 8.446-8.46 13.085-19.72 13.085-31.69V51.7l-1.788.01H66.51v4.165h27.695v.602c-1.423 21.14-19.04 37.907-40.495 37.907-10.829 0-21.01-4.226-28.68-11.902-7.67-7.672-11.89-17.879-11.89-28.737 0-10.857 4.22-21.063 11.89-28.739 7.67-7.685 17.851-11.911 28.68-11.911.492 0 1.636.012 2.125.025V8.943z"/>
    </g>
</svg>
