<svg xmlns="http://www.w3.org/2000/svg" width="152" height="85" viewBox="0 0 152 85">
    <g fill="none" fill-rule="evenodd">
        <path fill="#1D193F" fill-rule="nonzero" d="M3.883 84.956C1.738 84.956 0 83.228 0 81.095V3.862C0 1.729 1.738 0 3.883 0h143.653c2.144 0 3.882 1.729 3.882 3.862v77.233c0 2.133-1.738 3.861-3.882 3.861H3.883z"/>
        <path fill="#EC174F" fill-rule="nonzero" d="M75.286 0h72.228c2.156 0 3.904 1.72 3.904 3.842v26.746L75.286 83.745V0z"/>
        <g fill="#FFF">
            <path d="M89.37 24.885v-5.26l-4.324 2.62zM84.63 28.265l4.323-2.62-4.324-2.64zM92.083 16.705l2.503 4.56 2.485-4.56zM95.288 22.585l2.503 4.56 2.485-4.56zM98.493 27.585h5.007l-2.504-4.56zM84.63 21.485v.02l4.323-2.64-4.324-2.64zM84.63 14.725l4.323-2.62v-.02l-4.324-2.62zM112.85 21.485v.02l4.324-2.64-4.324-2.64zM112.85 14.725l4.324-2.62v-.02l-4.324-2.62zM107.426 21.265l2.503-4.56h-5.007zM104.202 17.145l-2.485 4.56h4.988zM104.22 27.145l2.485-4.56h-4.988zM113.267 22.245l4.324 2.64v-5.26zM112.85 28.265l4.324-2.62-4.324-2.64zM100.295 21.705l-2.504-4.56-2.484 4.56z"/>
        </g>
        <path fill="#FFF" d="M12.722 54.317v2.886h-2.075v-8.507h3.435c.658 0 1.24.12 1.746.36.506.239.899.58 1.176 1.022.278.442.417.944.417 1.505 0 .83-.3 1.492-.901 1.989-.601.497-1.426.745-2.474.745h-1.324zm0-1.583h1.36c.401 0 .708-.1.919-.298.21-.2.316-.48.316-.842 0-.397-.109-.715-.325-.952-.217-.238-.512-.359-.887-.362h-1.383v2.454zm8.73 4.586c-.981 0-1.775-.289-2.382-.867-.607-.579-.91-1.332-.91-2.259v-.163c0-.647.121-1.218.363-1.712a2.64 2.64 0 0 1 1.061-1.148c.465-.271 1.017-.406 1.655-.406.899 0 1.608.275 2.128.826.52.551.78 1.32.78 2.305v.766h-3.96c.071.354.227.633.467.835.24.203.552.304.934.304.63 0 1.123-.218 1.478-.654l.91 1.063c-.248.339-.6.609-1.055.81a3.6 3.6 0 0 1-1.469.3zm-.225-5.036c-.583 0-.93.381-1.04 1.145h2.01v-.152c.008-.316-.073-.56-.243-.733-.169-.174-.411-.26-.727-.26zm6.449 2.71h-.597v2.21h-1.998V50.88h1.998v2.273h.573l1.017-2.273h2.553l-1.867 2.922h.006l2.05 3.4h-2.7l-1.035-2.208zm3.623-1.01c0-.631.124-1.193.373-1.686a2.645 2.645 0 0 1 1.07-1.136c.464-.265 1.01-.397 1.637-.397.957 0 1.712.293 2.263.879.552.586.828 1.384.828 2.393v.07c0 .985-.277 1.767-.83 2.346-.554.578-1.304.867-2.25.867-.91 0-1.64-.27-2.192-.809-.552-.54-.85-1.27-.893-2.194l-.006-.333zm1.992.123c0 .584.093 1.012.278 1.285.185.273.459.409.821.409.71 0 1.072-.54 1.088-1.618v-.2c0-1.133-.366-1.7-1.1-1.7-.665 0-1.026.49-1.081 1.467l-.006.357zm9.061.923L43.8 50.88h2.506v6.322h-1.998v-3.505l-1.288 3.505h-1.324l-1.218-3.318v3.318h-1.997v-6.322h2.447l1.424 4.149zm8.381 2.29c-.98 0-1.775-.289-2.382-.867-.606-.579-.91-1.332-.91-2.259v-.163c0-.647.121-1.218.364-1.712a2.64 2.64 0 0 1 1.06-1.148c.466-.271 1.017-.406 1.656-.406.898 0 1.607.275 2.127.826.52.551.78 1.32.78 2.305v.766h-3.96c.071.354.227.633.467.835.24.203.552.304.934.304.63 0 1.123-.218 1.478-.654l.91 1.063c-.248.339-.6.609-1.055.81a3.6 3.6 0 0 1-1.469.3zm-.224-5.036c-.583 0-.93.381-1.04 1.145h2.01v-.152c.007-.316-.074-.56-.243-.733-.17-.174-.412-.26-.727-.26zm9.415 4.92h-1.997V54.86h-1.744v2.343h-1.992v-6.322h1.992v2.466h1.744v-2.466h1.997v6.322zm1.26-1.52c.319-.315.55-.629.694-.94.144-.312.227-.674.251-1.087l.018-.433.035-2.343h4.983v4.803h.957v3.436h-1.997v-1.917H62.66v1.917h-2.045l-.006-3.436h.573zm2.293 0h1.702v-3.283h-1.023l-.006.52c-.027 1.137-.252 2.058-.673 2.763zm5.071-1.7c0-.631.124-1.193.372-1.686a2.645 2.645 0 0 1 1.07-1.136c.465-.265 1.01-.397 1.637-.397.958 0 1.713.293 2.264.879.552.586.828 1.384.828 2.393v.07c0 .985-.277 1.767-.83 2.346-.554.578-1.304.867-2.25.867-.91 0-1.64-.27-2.193-.809-.551-.54-.849-1.27-.892-2.194l-.006-.333zm1.992.123c0 .584.092 1.012.278 1.285.185.273.459.409.821.409.71 0 1.072-.54 1.088-1.618v-.2c0-1.133-.367-1.7-1.1-1.7-.665 0-1.026.49-1.081 1.467l-.006.357zm5.19 3.096v-6.322h2.742c.879 0 1.551.152 2.018.456.467.304.7.742.7 1.315 0 .292-.102.554-.307.786-.204.231-.504.41-.898.534.508.086.9.252 1.176.5.276.247.414.556.414.926 0 .596-.228 1.045-.683 1.347-.455.302-1.11.454-1.965.458H75.73zm1.997-2.576v1.069h1.165c.248 0 .425-.043.532-.129.106-.085.16-.216.16-.391 0-.35-.206-.534-.616-.55h-1.24zm0-1.216h.822c.24 0 .409-.04.505-.12.097-.08.145-.197.145-.353 0-.202-.06-.345-.177-.426-.119-.082-.302-.123-.55-.123h-.745v1.022zm8.27 3.792a2.206 2.206 0 0 1-.19-.566c-.366.455-.879.683-1.537.683-.603 0-1.115-.18-1.536-.54a1.712 1.712 0 0 1-.633-1.359c0-.685.256-1.203.768-1.554.513-.35 1.257-.526 2.235-.526h.614v-.333c0-.58-.254-.87-.762-.87-.473 0-.71.23-.71.689h-1.991c0-.612.263-1.108.789-1.49.526-.382 1.197-.572 2.012-.572.816 0 1.46.196 1.933.59.473.393.715.933.727 1.618v2.799c.008.58.099 1.024.272 1.332v.1h-1.992zm-1.248-1.285c.248 0 .454-.053.618-.158a.994.994 0 0 0 .351-.356v-1.011h-.579c-.693 0-1.04.308-1.04.923 0 .18.061.324.183.435a.668.668 0 0 0 .467.167zm9.764 1.285h-1.997V54.86h-1.744v2.343H88.78v-6.322h1.992v2.466h1.744v-2.466h1.997v6.322zm6.786 0H99.3V54.86h-1.744v2.343h-1.991v-6.322h1.991v2.466h1.744v-2.466h1.998v6.322zm3.227-4.586h1.023c.59 0 1.11.095 1.56.286.45.19.792.462 1.028.812.237.35.355.758.355 1.221 0 .682-.267 1.23-.8 1.645-.535.415-1.263.622-2.185.622h-2.985v-6.322h2.004v1.736zm6.915 4.586h-2.003v-6.322h2.003v6.322zm-6.915-3.073v1.566h1.01c.304 0 .542-.07.713-.208a.686.686 0 0 0 .257-.563.76.76 0 0 0-.23-.573c-.154-.148-.4-.222-.74-.222h-1.01zm11.904-3.249h1.998v6.322h-1.998v-3.68l-1.755 3.68h-2.004v-6.322h2.004v3.67l1.755-3.67zm1.354-2.664c0 .534-.2.966-.597 1.297-.398.331-.928.497-1.59.497s-1.192-.166-1.59-.497c-.398-.33-.597-.763-.597-1.297h1.353c0 .234.074.416.222.546.148.13.352.196.612.196s.462-.063.605-.19c.144-.126.216-.31.216-.552h1.366zM16.156 66.349h-2.015v4.815h-2.004v-4.815H10.15v-1.507h6.005v1.507zm3.458 4.932c-.981 0-1.775-.29-2.382-.868-.607-.578-.91-1.331-.91-2.258v-.164c0-.646.12-1.217.363-1.712a2.64 2.64 0 0 1 1.061-1.148c.465-.27 1.017-.406 1.655-.406.899 0 1.608.276 2.128.827.52.55.78 1.32.78 2.305v.765h-3.96c.07.355.227.633.467.836.24.202.552.304.934.304.63 0 1.123-.219 1.477-.655l.91 1.064c-.248.338-.6.608-1.054.809a3.6 3.6 0 0 1-1.47.3zm-.225-5.037c-.583 0-.93.382-1.04 1.145h2.01v-.152c.007-.315-.073-.56-.243-.733-.17-.173-.411-.26-.727-.26zm9.434-1.402v6.322H26.83V66.36h-1.194l-.107 1.934c-.074.958-.293 1.675-.656 2.15-.362.475-.9.715-1.613.719h-.627l-.023-1.508.206-.023c.264-.031.46-.205.589-.523.128-.317.21-.797.245-1.44l.124-2.828h5.048zM33 71.28c-.98 0-1.775-.29-2.382-.868-.606-.578-.91-1.331-.91-2.258v-.164c0-.646.121-1.217.364-1.712a2.64 2.64 0 0 1 1.06-1.148c.466-.27 1.017-.406 1.656-.406.898 0 1.607.276 2.128.827.52.55.78 1.32.78 2.305v.765h-3.96c.07.355.226.633.467.836.24.202.551.304.933.304.63 0 1.123-.219 1.478-.655l.91 1.064c-.248.338-.6.608-1.055.809a3.6 3.6 0 0 1-1.469.3zm-.224-5.037c-.583 0-.93.382-1.04 1.145h2.01v-.152c.007-.315-.074-.56-.243-.733-.17-.173-.412-.26-.727-.26zm3.854 4.92v-6.322h2.742c.879 0 1.552.152 2.019.456.467.303.7.742.7 1.314 0 .292-.102.554-.307.786-.205.232-.505.41-.899.535.509.085.9.252 1.176.5.276.247.414.555.414.925 0 .596-.227 1.045-.682 1.347-.456.302-1.11.455-1.966.459h-3.197zm1.997-2.577v1.07h1.165c.248 0 .425-.043.532-.13.106-.085.16-.215.16-.39 0-.351-.206-.534-.615-.55h-1.242zm0-1.215h.822c.24 0 .409-.04.505-.12.097-.08.145-.198.145-.353 0-.203-.059-.345-.177-.427-.118-.082-.302-.123-.55-.123h-.745v1.023zm8.388-2.53h1.997v6.322h-1.997v-3.681l-1.756 3.68h-2.004v-6.321h2.004v3.67l1.756-3.67zm6.377 1.91c0-.412-.22-.619-.662-.619-.508 0-.762.181-.762.544h-1.992c0-.573.243-1.04.73-1.403.486-.362 1.118-.543 1.894-.543.863 0 1.543.16 2.04.482.496.321.744.774.744 1.358 0 .28-.086.539-.257.775a1.768 1.768 0 0 1-.724.563c.729.254 1.093.742 1.093 1.467 0 .576-.263 1.038-.789 1.385-.526.346-1.228.52-2.107.52-.8 0-1.454-.18-1.962-.54-.509-.361-.763-.843-.763-1.447h1.992c0 .16.067.297.201.412.134.115.357.172.668.172.252 0 .444-.06.576-.18.132-.121.198-.287.198-.497 0-.452-.254-.686-.762-.702h-.893v-1.145h.81c.485 0 .727-.2.727-.602zm2.695 1.192c0-.63.125-1.192.373-1.685a2.645 2.645 0 0 1 1.07-1.137c.465-.265 1.01-.397 1.637-.397.957 0 1.712.293 2.264.88.551.586.827 1.383.827 2.392v.07c0 .986-.277 1.768-.83 2.346-.554.578-1.304.868-2.25.868-.91 0-1.64-.27-2.192-.81-.552-.54-.85-1.27-.893-2.194l-.006-.333zm1.992.123c0 .584.093 1.013.278 1.286.185.272.46.409.822.409.709 0 1.071-.54 1.087-1.619v-.199c0-1.133-.366-1.7-1.1-1.7-.665 0-1.026.489-1.08 1.467l-.007.356zm10.994-.017c0 .981-.224 1.765-.67 2.351-.448.587-1.052.88-1.812.88-.588 0-1.07-.213-1.449-.637v2.95h-1.991v-8.752h1.861l.06.584c.382-.467.884-.701 1.507-.701.788 0 1.4.287 1.838.862.437.574.656 1.364.656 2.37v.093zm-1.992-.123c0-1.122-.33-1.683-.993-1.683-.473 0-.788.168-.946.503v2.489c.174.35.493.526.958.526.634 0 .961-.542.981-1.625v-.21z"/>
    </g>
</svg>
