<svg xmlns="http://www.w3.org/2000/svg" width="48" height="48" viewBox="0 0 48 48">
    <g fill="#EC174F" fill-rule="nonzero">
        <circle cx="24" cy="24" r="24" opacity=".121"/>
        <path d="M34.286 16H13.714c-.946 0-1.714.753-1.714 1.681v13.45c0 .929.768 1.682 1.714 1.682h20.572c.946 0 1.714-.753 1.714-1.681v-13.45c0-.929-.768-1.682-1.714-1.682zM17.143 29.45h-1.714V19.364h1.714c2.84 0 5.143 2.258 5.143 5.044 0 2.786-2.303 5.044-5.143 5.044zm15.428 0h-1.714c-2.84 0-5.143-2.257-5.143-5.043s2.303-5.044 5.143-5.044h1.714V29.45z"/>
    </g>
</svg>
