<svg xmlns="http://www.w3.org/2000/svg" width="48" height="48" viewBox="0 0 48 48">
    <g fill="#EC174F" fill-rule="nonzero">
        <circle cx="24" cy="24" r="24" opacity=".121"/>
        <path d="M18.794 19.854L17.038 15h6.111l-4.355 4.854zM24.85 15h6.11l-1.754 4.854L24.85 15zm-4.884 5.442L24 15.948l4.034 4.494h-8.067zm8.574 1.251l-4.54 13.782-4.542-13.782h9.082zm1.809-1.25l1.757-4.86L36 20.444h-5.65zm-.452 1.25h6.084l-10.78 12.983 4.696-12.983zm-11.795 0l4.696 12.983-10.78-12.983h6.084zM12 20.443l3.893-4.86 1.757 4.86H12z"/>
    </g>
</svg>
