<svg xmlns="http://www.w3.org/2000/svg" width="48" height="48" viewBox="0 0 48 48">
    <g fill="#EC174F" fill-rule="nonzero">
        <circle cx="24" cy="24" r="24" opacity=".121"/>
        <path d="M24 13c3.899 0 7.05 3.195 7.05 7.15 0 .113-.003.224-.008.335a8.126 8.126 0 0 0-7.04 1.409 8.132 8.132 0 0 0-7.041-1.41 7.432 7.432 0 0 1-.008-.333C16.953 16.194 20.101 13 24 13zm-4.953 8.43c1.502 0 2.892.473 4.034 1.281a8.399 8.399 0 0 0-2.14 3.886 7.13 7.13 0 0 1-3.822-4.897 6.981 6.981 0 0 1 1.928-.27zm9.906 0c.67 0 1.318.094 1.931.27a7.132 7.132 0 0 1-3.822 4.896 8.397 8.397 0 0 0-2.14-3.885 6.951 6.951 0 0 1 4.031-1.281zm-12.965.704a8.37 8.37 0 0 0 4.751 5.702 8.404 8.404 0 0 0 2.341 6.613 6.957 6.957 0 0 1-4.033 1.282c-3.899 0-7.047-3.194-7.047-7.15a7.15 7.15 0 0 1 3.988-6.447zm16.027.001A7.15 7.15 0 0 1 36 28.58c0 3.957-3.148 7.151-7.047 7.151-1.5 0-2.89-.474-4.031-1.281a8.402 8.402 0 0 0 2.342-6.615 8.373 8.373 0 0 0 4.75-5.7zM24 23.488a7.156 7.156 0 0 1 1.93 3.543A6.984 6.984 0 0 1 24 27.3a6.983 6.983 0 0 1-1.928-.27 7.157 7.157 0 0 1 1.93-3.543zm2.088 4.759a7.18 7.18 0 0 1-2.088 5.426 7.18 7.18 0 0 1-2.087-5.426 8.119 8.119 0 0 0 4.175 0z"/>
    </g>
</svg>
